# xmcd
#
# Track frame offsets:
# 150
# 43507
# 110592
# 137017
# 181415
#
# Disc length: 2631 seconds
#
# Revision: 0
# Processed by: cddbd v1.5.2PL0 Copyright (c) Steve Scherf et al.
# Submitted via: Audion 3.0.2 (http://www.panic.com/audion/)
#
DISCID=3f0a4505
DTITLE=Boris - Boris at last -feedbacker-
DYEAR=1900
DGENRE=
TTITLE0=feedbacker pt. 1
TTITLE1=feedbacker pt. 2
TTITLE2=feedbacker pt. 3
TTITLE3=feedbacker pt. 4
TTITLE4=feedbacker pt. 5
EXTD=
EXTT0=
EXTT1=
EXTT2=
EXTT3=
EXTT4=
PLAYORDER=
